<!DOCTYPE svg PUBLIC "-//W3C//DTD SVG 1.1//EN" "http://www.w3.org/Graphics/SVG/1.1/DTD/svg11.dtd">
<!-- Uploaded to: SVG Repo, www.svgrepo.com, Transformed by: SVG Repo Mixer Tools -->
<svg version="1.1" id="Capa_1" xmlns="http://www.w3.org/2000/svg" xmlns:xlink="http://www.w3.org/1999/xlink" viewBox="0 0 58 58" xml:space="preserve" width="800px" height="800px" fill="#000000">
<g id="SVGRepo_bgCarrier" stroke-width="0"/>
<g id="SVGRepo_tracerCarrier" stroke-linecap="round" stroke-linejoin="round"/>
<g id="SVGRepo_iconCarrier"> <rect x="13" y="3.5" style="fill:#6D44FF;" width="32" height="54"/> <polygon style="fill:#6D44FF;" points="13,57.5 10,57.5 10,0.5 13,3.5 "/> <polygon style="fill:#6D44FF;" points="45,57.5 48,57.5 48,0.5 45,3.5 "/> <polygon style="fill:#6D44FF;" points="45,3.5 13,3.5 10,0.5 48,0.5 "/> <rect y="54.5" style="fill:#4F505E;" width="10" height="3"/> <rect x="48" y="54.5" style="fill:#4F505E;" width="10" height="3"/> <path style="fill:#E7ECED;" d="M38,33.5h-4.5c-0.828,0-1.5-0.672-1.5-1.5v0c0-0.828,0.672-1.5,1.5-1.5H38V33.5z"/> <path style="fill:#4F505E;" d="M36,28.943V30.5h2v3h-2v1.557c0,0.797,0.646,1.443,1.443,1.443h2.114 c0.797,0,1.443-0.646,1.443-1.443v-6.114c0-0.797-0.646-1.443-1.443-1.443h-2.114C36.646,27.5,36,28.146,36,28.943z"/> </g>
</svg>